<mxfile host="app.diagrams.net" modified="2023-04-01T05:24:58.134Z" agent="Mozilla/5.0 (Windows NT 10.0; Win64; x64) AppleWebKit/537.36 (KHTML, like Gecko) Chrome/111.0.0.0 Safari/537.36" etag="VSBmZNygeb-3Y3tj2UWW" version="21.1.2" type="device">
  <diagram id="frQjgCpSMQZTaJP8_-7-" name="Page-1">
    <mxGraphModel dx="1793" dy="945" grid="1" gridSize="10" guides="1" tooltips="1" connect="1" arrows="1" fold="1" page="1" pageScale="1" pageWidth="850" pageHeight="1100" math="0" shadow="0">
      <root>
        <mxCell id="0" />
        <mxCell id="1" parent="0" />
        <mxCell id="EmgDvkxKHjXgh3PFIwty-4" value="" style="edgeStyle=orthogonalEdgeStyle;rounded=0;orthogonalLoop=1;jettySize=auto;html=1;fontFamily=Verdana;" parent="1" source="EmgDvkxKHjXgh3PFIwty-1" target="EmgDvkxKHjXgh3PFIwty-2" edge="1">
          <mxGeometry relative="1" as="geometry" />
        </mxCell>
        <mxCell id="EmgDvkxKHjXgh3PFIwty-19" style="edgeStyle=orthogonalEdgeStyle;rounded=0;orthogonalLoop=1;jettySize=auto;html=1;exitX=0;exitY=0;exitDx=0;exitDy=0;entryX=0.5;entryY=1;entryDx=0;entryDy=0;fontFamily=Verdana;fontSize=8;" parent="1" source="EmgDvkxKHjXgh3PFIwty-1" target="EmgDvkxKHjXgh3PFIwty-16" edge="1">
          <mxGeometry relative="1" as="geometry" />
        </mxCell>
        <mxCell id="EmgDvkxKHjXgh3PFIwty-20" style="edgeStyle=orthogonalEdgeStyle;rounded=0;orthogonalLoop=1;jettySize=auto;html=1;exitX=0.5;exitY=0;exitDx=0;exitDy=0;entryX=0.5;entryY=1;entryDx=0;entryDy=0;fontFamily=Verdana;fontSize=8;" parent="1" source="EmgDvkxKHjXgh3PFIwty-1" target="EmgDvkxKHjXgh3PFIwty-17" edge="1">
          <mxGeometry relative="1" as="geometry" />
        </mxCell>
        <mxCell id="EmgDvkxKHjXgh3PFIwty-21" style="edgeStyle=orthogonalEdgeStyle;rounded=0;orthogonalLoop=1;jettySize=auto;html=1;exitX=1;exitY=0;exitDx=0;exitDy=0;fontFamily=Verdana;fontSize=8;" parent="1" source="EmgDvkxKHjXgh3PFIwty-1" target="EmgDvkxKHjXgh3PFIwty-18" edge="1">
          <mxGeometry relative="1" as="geometry" />
        </mxCell>
        <mxCell id="EmgDvkxKHjXgh3PFIwty-1" value="&lt;font face=&quot;Verdana&quot;&gt;Employee&lt;/font&gt;" style="rounded=0;whiteSpace=wrap;html=1;fontStyle=1" parent="1" vertex="1">
          <mxGeometry x="610" y="140" width="120" height="60" as="geometry" />
        </mxCell>
        <mxCell id="EmgDvkxKHjXgh3PFIwty-9" style="edgeStyle=orthogonalEdgeStyle;rounded=0;orthogonalLoop=1;jettySize=auto;html=1;exitX=0.5;exitY=0;exitDx=0;exitDy=0;entryX=0.4;entryY=-0.103;entryDx=0;entryDy=0;entryPerimeter=0;fontFamily=Verdana;" parent="1" source="EmgDvkxKHjXgh3PFIwty-2" target="EmgDvkxKHjXgh3PFIwty-5" edge="1">
          <mxGeometry relative="1" as="geometry" />
        </mxCell>
        <mxCell id="EmgDvkxKHjXgh3PFIwty-29" style="edgeStyle=orthogonalEdgeStyle;rounded=0;orthogonalLoop=1;jettySize=auto;html=1;exitX=0.5;exitY=1;exitDx=0;exitDy=0;fontFamily=Verdana;fontSize=8;" parent="1" source="EmgDvkxKHjXgh3PFIwty-2" edge="1">
          <mxGeometry relative="1" as="geometry">
            <mxPoint x="600" y="390" as="targetPoint" />
          </mxGeometry>
        </mxCell>
        <mxCell id="EmgDvkxKHjXgh3PFIwty-2" value="&lt;b&gt;IS A&lt;/b&gt;" style="triangle;whiteSpace=wrap;html=1;fontFamily=Verdana;direction=south;" parent="1" vertex="1">
          <mxGeometry x="630" y="270" width="80" height="60" as="geometry" />
        </mxCell>
        <mxCell id="EmgDvkxKHjXgh3PFIwty-11" style="edgeStyle=orthogonalEdgeStyle;rounded=0;orthogonalLoop=1;jettySize=auto;html=1;exitX=0.75;exitY=0;exitDx=0;exitDy=0;fontFamily=Verdana;" parent="1" source="EmgDvkxKHjXgh3PFIwty-5" target="EmgDvkxKHjXgh3PFIwty-10" edge="1">
          <mxGeometry relative="1" as="geometry" />
        </mxCell>
        <mxCell id="EmgDvkxKHjXgh3PFIwty-33" style="edgeStyle=orthogonalEdgeStyle;rounded=0;orthogonalLoop=1;jettySize=auto;html=1;exitX=1;exitY=0.5;exitDx=0;exitDy=0;entryX=0;entryY=0.5;entryDx=0;entryDy=0;fontFamily=Verdana;fontSize=8;" parent="1" source="EmgDvkxKHjXgh3PFIwty-5" target="EmgDvkxKHjXgh3PFIwty-32" edge="1">
          <mxGeometry relative="1" as="geometry" />
        </mxCell>
        <mxCell id="EmgDvkxKHjXgh3PFIwty-5" value="Devlopement&amp;nbsp;&lt;br&gt;Manager" style="rounded=0;whiteSpace=wrap;html=1;fontFamily=Verdana;fontStyle=1" parent="1" vertex="1">
          <mxGeometry x="710" y="420" width="120" height="60" as="geometry" />
        </mxCell>
        <mxCell id="EmgDvkxKHjXgh3PFIwty-30" style="edgeStyle=orthogonalEdgeStyle;rounded=0;orthogonalLoop=1;jettySize=auto;html=1;exitX=0;exitY=0;exitDx=0;exitDy=0;fontFamily=Verdana;fontSize=8;" parent="1" source="EmgDvkxKHjXgh3PFIwty-6" target="EmgDvkxKHjXgh3PFIwty-12" edge="1">
          <mxGeometry relative="1" as="geometry" />
        </mxCell>
        <mxCell id="EmgDvkxKHjXgh3PFIwty-31" style="edgeStyle=orthogonalEdgeStyle;rounded=0;orthogonalLoop=1;jettySize=auto;html=1;exitX=0.25;exitY=0;exitDx=0;exitDy=0;entryX=1;entryY=0.5;entryDx=0;entryDy=0;fontFamily=Verdana;fontSize=8;" parent="1" source="EmgDvkxKHjXgh3PFIwty-6" target="EmgDvkxKHjXgh3PFIwty-14" edge="1">
          <mxGeometry relative="1" as="geometry" />
        </mxCell>
        <mxCell id="EmgDvkxKHjXgh3PFIwty-64" style="edgeStyle=orthogonalEdgeStyle;rounded=0;orthogonalLoop=1;jettySize=auto;html=1;exitX=0.5;exitY=1;exitDx=0;exitDy=0;entryX=0.5;entryY=0;entryDx=0;entryDy=0;fontFamily=Verdana;fontSize=12;" parent="1" source="EmgDvkxKHjXgh3PFIwty-6" target="EmgDvkxKHjXgh3PFIwty-63" edge="1">
          <mxGeometry relative="1" as="geometry" />
        </mxCell>
        <mxCell id="EmgDvkxKHjXgh3PFIwty-70" style="edgeStyle=orthogonalEdgeStyle;rounded=0;orthogonalLoop=1;jettySize=auto;html=1;exitX=1;exitY=1;exitDx=0;exitDy=0;entryX=0;entryY=0.5;entryDx=0;entryDy=0;fontFamily=Verdana;fontSize=12;" parent="1" source="EmgDvkxKHjXgh3PFIwty-6" target="EmgDvkxKHjXgh3PFIwty-69" edge="1">
          <mxGeometry relative="1" as="geometry" />
        </mxCell>
        <mxCell id="EmgDvkxKHjXgh3PFIwty-6" value="&lt;b&gt;Developer&lt;/b&gt;" style="rounded=0;whiteSpace=wrap;html=1;fontFamily=Verdana;" parent="1" vertex="1">
          <mxGeometry x="500" y="400" width="120" height="60" as="geometry" />
        </mxCell>
        <mxCell id="EmgDvkxKHjXgh3PFIwty-10" value="&lt;b style=&quot;font-size: 8px;&quot;&gt;product type&lt;/b&gt;" style="ellipse;whiteSpace=wrap;html=1;fontFamily=Verdana;direction=south;" parent="1" vertex="1">
          <mxGeometry x="740" y="330" width="120" height="30" as="geometry" />
        </mxCell>
        <mxCell id="EmgDvkxKHjXgh3PFIwty-12" value="&lt;b&gt;position&lt;/b&gt;" style="ellipse;whiteSpace=wrap;html=1;fontFamily=Verdana;fontSize=8;direction=south;" parent="1" vertex="1">
          <mxGeometry x="440" y="260" width="70" height="35" as="geometry" />
        </mxCell>
        <mxCell id="EmgDvkxKHjXgh3PFIwty-14" value="skill" style="ellipse;whiteSpace=wrap;html=1;fontFamily=Verdana;fontSize=8;direction=south;fontStyle=1" parent="1" vertex="1">
          <mxGeometry x="520" y="260" width="80" height="30" as="geometry" />
        </mxCell>
        <mxCell id="EmgDvkxKHjXgh3PFIwty-16" value="&lt;b&gt;EID&lt;/b&gt;" style="ellipse;whiteSpace=wrap;html=1;fontFamily=Verdana;fontSize=8;fontStyle=4" parent="1" vertex="1">
          <mxGeometry x="540" y="30" width="70" height="30" as="geometry" />
        </mxCell>
        <mxCell id="EmgDvkxKHjXgh3PFIwty-17" value="EName" style="ellipse;whiteSpace=wrap;html=1;fontFamily=Verdana;fontSize=8;fontStyle=1" parent="1" vertex="1">
          <mxGeometry x="650" y="30" width="70" height="30" as="geometry" />
        </mxCell>
        <mxCell id="EmgDvkxKHjXgh3PFIwty-18" value="ESalary" style="ellipse;whiteSpace=wrap;html=1;fontFamily=Verdana;fontSize=8;fontStyle=1" parent="1" vertex="1">
          <mxGeometry x="765" y="30" width="70" height="30" as="geometry" />
        </mxCell>
        <mxCell id="EmgDvkxKHjXgh3PFIwty-23" value="" style="endArrow=none;html=1;rounded=0;fontFamily=Verdana;fontSize=8;" parent="1" edge="1">
          <mxGeometry width="50" height="50" relative="1" as="geometry">
            <mxPoint x="490" y="470" as="sourcePoint" />
            <mxPoint x="630" y="470" as="targetPoint" />
            <Array as="points">
              <mxPoint x="550" y="470" />
            </Array>
          </mxGeometry>
        </mxCell>
        <mxCell id="EmgDvkxKHjXgh3PFIwty-25" value="" style="endArrow=none;html=1;rounded=0;fontFamily=Verdana;fontSize=8;" parent="1" edge="1">
          <mxGeometry x="-1" y="314" width="50" height="50" relative="1" as="geometry">
            <mxPoint x="490" y="470" as="sourcePoint" />
            <mxPoint x="490" y="390" as="targetPoint" />
            <mxPoint x="24" y="120" as="offset" />
          </mxGeometry>
        </mxCell>
        <mxCell id="EmgDvkxKHjXgh3PFIwty-27" value="" style="endArrow=none;html=1;rounded=0;fontFamily=Verdana;fontSize=8;" parent="1" edge="1">
          <mxGeometry width="50" height="50" relative="1" as="geometry">
            <mxPoint x="490" y="390" as="sourcePoint" />
            <mxPoint x="630" y="390" as="targetPoint" />
          </mxGeometry>
        </mxCell>
        <mxCell id="EmgDvkxKHjXgh3PFIwty-28" value="" style="endArrow=none;html=1;rounded=0;fontFamily=Verdana;fontSize=8;" parent="1" edge="1">
          <mxGeometry width="50" height="50" relative="1" as="geometry">
            <mxPoint x="630" y="470" as="sourcePoint" />
            <mxPoint x="630" y="390" as="targetPoint" />
            <Array as="points">
              <mxPoint x="630" y="460" />
            </Array>
          </mxGeometry>
        </mxCell>
        <mxCell id="EmgDvkxKHjXgh3PFIwty-35" style="edgeStyle=orthogonalEdgeStyle;rounded=0;orthogonalLoop=1;jettySize=auto;html=1;exitX=1;exitY=0.5;exitDx=0;exitDy=0;entryX=0;entryY=0.5;entryDx=0;entryDy=0;fontFamily=Verdana;fontSize=10;" parent="1" source="EmgDvkxKHjXgh3PFIwty-32" target="EmgDvkxKHjXgh3PFIwty-34" edge="1">
          <mxGeometry relative="1" as="geometry" />
        </mxCell>
        <mxCell id="EmgDvkxKHjXgh3PFIwty-32" value="&lt;b style=&quot;font-size: 10px;&quot;&gt;Manages&lt;/b&gt;" style="rhombus;whiteSpace=wrap;html=1;fontFamily=Verdana;fontSize=8;" parent="1" vertex="1">
          <mxGeometry x="920" y="410" width="80" height="80" as="geometry" />
        </mxCell>
        <mxCell id="EmgDvkxKHjXgh3PFIwty-39" style="edgeStyle=orthogonalEdgeStyle;rounded=0;orthogonalLoop=1;jettySize=auto;html=1;exitX=0;exitY=0;exitDx=0;exitDy=0;entryX=1;entryY=0.5;entryDx=0;entryDy=0;fontFamily=Verdana;fontSize=12;" parent="1" source="EmgDvkxKHjXgh3PFIwty-34" target="EmgDvkxKHjXgh3PFIwty-36" edge="1">
          <mxGeometry relative="1" as="geometry" />
        </mxCell>
        <mxCell id="EmgDvkxKHjXgh3PFIwty-40" style="edgeStyle=orthogonalEdgeStyle;rounded=0;orthogonalLoop=1;jettySize=auto;html=1;exitX=0.25;exitY=0;exitDx=0;exitDy=0;entryX=1;entryY=0.5;entryDx=0;entryDy=0;fontFamily=Verdana;fontSize=12;" parent="1" source="EmgDvkxKHjXgh3PFIwty-34" target="EmgDvkxKHjXgh3PFIwty-37" edge="1">
          <mxGeometry relative="1" as="geometry" />
        </mxCell>
        <mxCell id="EmgDvkxKHjXgh3PFIwty-41" style="edgeStyle=orthogonalEdgeStyle;rounded=0;orthogonalLoop=1;jettySize=auto;html=1;exitX=0.5;exitY=0;exitDx=0;exitDy=0;entryX=1;entryY=0.5;entryDx=0;entryDy=0;fontFamily=Verdana;fontSize=12;" parent="1" source="EmgDvkxKHjXgh3PFIwty-34" target="EmgDvkxKHjXgh3PFIwty-38" edge="1">
          <mxGeometry relative="1" as="geometry" />
        </mxCell>
        <mxCell id="EmgDvkxKHjXgh3PFIwty-43" style="edgeStyle=orthogonalEdgeStyle;rounded=0;orthogonalLoop=1;jettySize=auto;html=1;exitX=0.5;exitY=1;exitDx=0;exitDy=0;entryX=0.5;entryY=0;entryDx=0;entryDy=0;fontFamily=Verdana;fontSize=12;" parent="1" source="EmgDvkxKHjXgh3PFIwty-34" target="EmgDvkxKHjXgh3PFIwty-42" edge="1">
          <mxGeometry relative="1" as="geometry" />
        </mxCell>
        <mxCell id="EmgDvkxKHjXgh3PFIwty-34" value="&lt;b&gt;&lt;font style=&quot;font-size: 12px;&quot;&gt;Team&lt;/font&gt;&lt;/b&gt;" style="rounded=0;whiteSpace=wrap;html=1;fontFamily=Verdana;fontSize=10;" parent="1" vertex="1">
          <mxGeometry x="1090" y="420" width="120" height="60" as="geometry" />
        </mxCell>
        <mxCell id="EmgDvkxKHjXgh3PFIwty-36" value="&lt;b&gt;TID&lt;/b&gt;" style="ellipse;whiteSpace=wrap;html=1;fontFamily=Verdana;fontSize=8;fontStyle=4;direction=south;" parent="1" vertex="1">
          <mxGeometry x="1040" y="280" width="50" height="30" as="geometry" />
        </mxCell>
        <mxCell id="EmgDvkxKHjXgh3PFIwty-37" value="TName" style="ellipse;whiteSpace=wrap;html=1;fontFamily=Verdana;fontSize=8;fontStyle=1;direction=south;" parent="1" vertex="1">
          <mxGeometry x="1100" y="280" width="70" height="30" as="geometry" />
        </mxCell>
        <mxCell id="EmgDvkxKHjXgh3PFIwty-38" value="TStartDate" style="ellipse;whiteSpace=wrap;html=1;fontFamily=Verdana;fontSize=8;fontStyle=1;direction=south;" parent="1" vertex="1">
          <mxGeometry x="1190" y="275" width="200" height="40" as="geometry" />
        </mxCell>
        <mxCell id="EmgDvkxKHjXgh3PFIwty-45" style="edgeStyle=orthogonalEdgeStyle;rounded=0;orthogonalLoop=1;jettySize=auto;html=1;exitX=0.5;exitY=1;exitDx=0;exitDy=0;entryX=0.5;entryY=0;entryDx=0;entryDy=0;fontFamily=Verdana;fontSize=12;" parent="1" source="EmgDvkxKHjXgh3PFIwty-42" target="EmgDvkxKHjXgh3PFIwty-44" edge="1">
          <mxGeometry relative="1" as="geometry" />
        </mxCell>
        <mxCell id="EmgDvkxKHjXgh3PFIwty-42" value="&lt;b&gt;Works&lt;/b&gt;" style="rhombus;whiteSpace=wrap;html=1;fontFamily=Verdana;fontSize=12;" parent="1" vertex="1">
          <mxGeometry x="1110" y="550" width="80" height="80" as="geometry" />
        </mxCell>
        <mxCell id="EmgDvkxKHjXgh3PFIwty-47" style="edgeStyle=orthogonalEdgeStyle;rounded=0;orthogonalLoop=1;jettySize=auto;html=1;exitX=0;exitY=1;exitDx=0;exitDy=0;entryX=0;entryY=0.5;entryDx=0;entryDy=0;fontFamily=Verdana;fontSize=12;" parent="1" source="EmgDvkxKHjXgh3PFIwty-44" target="EmgDvkxKHjXgh3PFIwty-46" edge="1">
          <mxGeometry relative="1" as="geometry" />
        </mxCell>
        <mxCell id="EmgDvkxKHjXgh3PFIwty-50" style="edgeStyle=orthogonalEdgeStyle;rounded=0;orthogonalLoop=1;jettySize=auto;html=1;exitX=0.25;exitY=1;exitDx=0;exitDy=0;fontFamily=Verdana;fontSize=12;entryX=0;entryY=0.375;entryDx=0;entryDy=0;entryPerimeter=0;" parent="1" source="EmgDvkxKHjXgh3PFIwty-44" edge="1" target="EmgDvkxKHjXgh3PFIwty-52">
          <mxGeometry relative="1" as="geometry">
            <mxPoint x="1090" y="840" as="targetPoint" />
          </mxGeometry>
        </mxCell>
        <mxCell id="EmgDvkxKHjXgh3PFIwty-55" style="edgeStyle=orthogonalEdgeStyle;rounded=0;orthogonalLoop=1;jettySize=auto;html=1;exitX=0.5;exitY=1;exitDx=0;exitDy=0;entryX=0;entryY=0.5;entryDx=0;entryDy=0;fontFamily=Verdana;fontSize=12;" parent="1" source="EmgDvkxKHjXgh3PFIwty-44" target="EmgDvkxKHjXgh3PFIwty-53" edge="1">
          <mxGeometry relative="1" as="geometry" />
        </mxCell>
        <mxCell id="EmgDvkxKHjXgh3PFIwty-56" style="edgeStyle=orthogonalEdgeStyle;rounded=0;orthogonalLoop=1;jettySize=auto;html=1;exitX=0.75;exitY=1;exitDx=0;exitDy=0;entryX=0;entryY=0.5;entryDx=0;entryDy=0;fontFamily=Verdana;fontSize=12;" parent="1" source="EmgDvkxKHjXgh3PFIwty-44" target="EmgDvkxKHjXgh3PFIwty-54" edge="1">
          <mxGeometry relative="1" as="geometry" />
        </mxCell>
        <mxCell id="EmgDvkxKHjXgh3PFIwty-58" style="edgeStyle=orthogonalEdgeStyle;rounded=0;orthogonalLoop=1;jettySize=auto;html=1;exitX=0;exitY=0.5;exitDx=0;exitDy=0;entryX=1;entryY=0.5;entryDx=0;entryDy=0;fontFamily=Verdana;fontSize=12;" parent="1" source="EmgDvkxKHjXgh3PFIwty-44" target="EmgDvkxKHjXgh3PFIwty-57" edge="1">
          <mxGeometry relative="1" as="geometry" />
        </mxCell>
        <mxCell id="EmgDvkxKHjXgh3PFIwty-44" value="&lt;b&gt;Project&lt;/b&gt;" style="rounded=0;whiteSpace=wrap;html=1;fontFamily=Verdana;fontSize=12;" parent="1" vertex="1">
          <mxGeometry x="1090" y="710" width="120" height="60" as="geometry" />
        </mxCell>
        <mxCell id="EmgDvkxKHjXgh3PFIwty-46" value="&lt;b&gt;ProjectId&lt;br&gt;&lt;/b&gt;" style="ellipse;whiteSpace=wrap;html=1;fontFamily=Verdana;fontSize=8;fontStyle=4;direction=south;" parent="1" vertex="1">
          <mxGeometry x="880" y="900" width="100" height="30" as="geometry" />
        </mxCell>
        <mxCell id="EmgDvkxKHjXgh3PFIwty-52" value="ProjectName" style="ellipse;whiteSpace=wrap;html=1;fontFamily=Verdana;fontSize=8;fontStyle=1;direction=south;" parent="1" vertex="1">
          <mxGeometry x="990" y="900" width="110" height="30" as="geometry" />
        </mxCell>
        <mxCell id="EmgDvkxKHjXgh3PFIwty-53" value="StartDate" style="ellipse;whiteSpace=wrap;html=1;fontFamily=Verdana;fontSize=8;fontStyle=1;direction=south;" parent="1" vertex="1">
          <mxGeometry x="1110" y="900" width="80" height="30" as="geometry" />
        </mxCell>
        <mxCell id="EmgDvkxKHjXgh3PFIwty-54" value="EndDate" style="ellipse;whiteSpace=wrap;html=1;fontFamily=Verdana;fontSize=8;fontStyle=1;direction=south;" parent="1" vertex="1">
          <mxGeometry x="1220" y="900" width="90" height="30" as="geometry" />
        </mxCell>
        <mxCell id="EmgDvkxKHjXgh3PFIwty-62" style="edgeStyle=orthogonalEdgeStyle;rounded=0;orthogonalLoop=1;jettySize=auto;html=1;exitX=0;exitY=0.5;exitDx=0;exitDy=0;entryX=1;entryY=0.5;entryDx=0;entryDy=0;fontFamily=Verdana;fontSize=12;" parent="1" source="EmgDvkxKHjXgh3PFIwty-57" target="EmgDvkxKHjXgh3PFIwty-61" edge="1">
          <mxGeometry relative="1" as="geometry" />
        </mxCell>
        <mxCell id="EmgDvkxKHjXgh3PFIwty-57" value="&lt;b&gt;Assign&lt;br&gt;&lt;/b&gt;" style="rhombus;whiteSpace=wrap;html=1;fontFamily=Verdana;fontSize=12;" parent="1" vertex="1">
          <mxGeometry x="840" y="620" width="80" height="80" as="geometry" />
        </mxCell>
        <mxCell id="EmgDvkxKHjXgh3PFIwty-67" style="edgeStyle=orthogonalEdgeStyle;rounded=0;orthogonalLoop=1;jettySize=auto;html=1;exitX=0.25;exitY=1;exitDx=0;exitDy=0;entryX=0;entryY=0.5;entryDx=0;entryDy=0;fontFamily=Verdana;fontSize=12;" parent="1" source="EmgDvkxKHjXgh3PFIwty-61" target="EmgDvkxKHjXgh3PFIwty-66" edge="1">
          <mxGeometry relative="1" as="geometry" />
        </mxCell>
        <mxCell id="EmgDvkxKHjXgh3PFIwty-61" value="&lt;b&gt;Hours Worked&lt;/b&gt;" style="rounded=0;whiteSpace=wrap;html=1;fontFamily=Verdana;fontSize=12;" parent="1" vertex="1">
          <mxGeometry x="620" y="920" width="120" height="60" as="geometry" />
        </mxCell>
        <mxCell id="EmgDvkxKHjXgh3PFIwty-65" style="edgeStyle=orthogonalEdgeStyle;rounded=0;orthogonalLoop=1;jettySize=auto;html=1;exitX=0.5;exitY=1;exitDx=0;exitDy=0;entryX=0;entryY=0.5;entryDx=0;entryDy=0;fontFamily=Verdana;fontSize=12;" parent="1" source="EmgDvkxKHjXgh3PFIwty-63" target="EmgDvkxKHjXgh3PFIwty-61" edge="1">
          <mxGeometry relative="1" as="geometry" />
        </mxCell>
        <mxCell id="EmgDvkxKHjXgh3PFIwty-63" value="&lt;b&gt;Spend&lt;/b&gt;" style="rhombus;whiteSpace=wrap;html=1;fontFamily=Verdana;fontSize=12;" parent="1" vertex="1">
          <mxGeometry x="520" y="570" width="80" height="80" as="geometry" />
        </mxCell>
        <mxCell id="EmgDvkxKHjXgh3PFIwty-66" value="number&lt;br&gt;of&amp;nbsp;&lt;br&gt;hours" style="ellipse;whiteSpace=wrap;html=1;fontFamily=Verdana;fontSize=8;fontStyle=1;direction=south;" parent="1" vertex="1">
          <mxGeometry x="605" y="1040" width="150" height="50" as="geometry" />
        </mxCell>
        <mxCell id="EmgDvkxKHjXgh3PFIwty-71" style="edgeStyle=orthogonalEdgeStyle;rounded=0;orthogonalLoop=1;jettySize=auto;html=1;exitX=1;exitY=0.5;exitDx=0;exitDy=0;entryX=0.25;entryY=1;entryDx=0;entryDy=0;fontFamily=Verdana;fontSize=12;" parent="1" source="EmgDvkxKHjXgh3PFIwty-69" target="EmgDvkxKHjXgh3PFIwty-34" edge="1">
          <mxGeometry relative="1" as="geometry" />
        </mxCell>
        <mxCell id="EmgDvkxKHjXgh3PFIwty-73" value="(1,*)" style="edgeLabel;html=1;align=center;verticalAlign=middle;resizable=0;points=[];fontSize=12;fontFamily=Verdana;" parent="EmgDvkxKHjXgh3PFIwty-71" connectable="0" vertex="1">
          <mxGeometry x="-0.1437" y="8" relative="1" as="geometry">
            <mxPoint x="-1" y="8" as="offset" />
          </mxGeometry>
        </mxCell>
        <mxCell id="EmgDvkxKHjXgh3PFIwty-69" value="&lt;b&gt;Involve&lt;/b&gt;" style="rhombus;whiteSpace=wrap;html=1;fontFamily=Verdana;fontSize=12;" parent="1" vertex="1">
          <mxGeometry x="730" y="530" width="80" height="80" as="geometry" />
        </mxCell>
        <mxCell id="EmgDvkxKHjXgh3PFIwty-72" value="(1,*)" style="text;html=1;align=center;verticalAlign=middle;resizable=0;points=[];autosize=1;strokeColor=none;fillColor=none;fontSize=12;fontFamily=Verdana;" parent="1" vertex="1">
          <mxGeometry x="635" y="485" width="50" height="30" as="geometry" />
        </mxCell>
        <mxCell id="EmgDvkxKHjXgh3PFIwty-74" value="(0,*)" style="text;html=1;align=center;verticalAlign=middle;resizable=0;points=[];autosize=1;strokeColor=none;fillColor=none;fontSize=12;fontFamily=Verdana;" parent="1" vertex="1">
          <mxGeometry x="835" y="415" width="50" height="30" as="geometry" />
        </mxCell>
        <mxCell id="EmgDvkxKHjXgh3PFIwty-75" value="(1,1)" style="text;html=1;align=center;verticalAlign=middle;resizable=0;points=[];autosize=1;strokeColor=none;fillColor=none;fontSize=12;fontFamily=Verdana;" parent="1" vertex="1">
          <mxGeometry x="1025" y="405" width="50" height="30" as="geometry" />
        </mxCell>
        <mxCell id="EmgDvkxKHjXgh3PFIwty-76" value="(1,1)" style="text;html=1;align=center;verticalAlign=middle;resizable=0;points=[];autosize=1;strokeColor=none;fillColor=none;fontSize=12;fontFamily=Verdana;" parent="1" vertex="1">
          <mxGeometry x="1155" y="495" width="50" height="30" as="geometry" />
        </mxCell>
        <mxCell id="EmgDvkxKHjXgh3PFIwty-77" value="(0,*)" style="text;html=1;align=center;verticalAlign=middle;resizable=0;points=[];autosize=1;strokeColor=none;fillColor=none;fontSize=12;fontFamily=Verdana;" parent="1" vertex="1">
          <mxGeometry x="1155" y="645" width="50" height="30" as="geometry" />
        </mxCell>
        <mxCell id="EmgDvkxKHjXgh3PFIwty-78" value="(1,*)" style="text;html=1;align=center;verticalAlign=middle;resizable=0;points=[];autosize=1;strokeColor=none;fillColor=none;fontSize=12;fontFamily=Verdana;" parent="1" vertex="1">
          <mxGeometry x="495" y="495" width="50" height="30" as="geometry" />
        </mxCell>
        <mxCell id="EmgDvkxKHjXgh3PFIwty-79" value="(1,1)" style="text;html=1;align=center;verticalAlign=middle;resizable=0;points=[];autosize=1;strokeColor=none;fillColor=none;fontSize=12;fontFamily=Verdana;" parent="1" vertex="1">
          <mxGeometry x="565" y="885" width="50" height="30" as="geometry" />
        </mxCell>
        <mxCell id="EmgDvkxKHjXgh3PFIwty-80" value="(1,1)" style="text;html=1;align=center;verticalAlign=middle;resizable=0;points=[];autosize=1;strokeColor=none;fillColor=none;fontSize=12;fontFamily=Verdana;" parent="1" vertex="1">
          <mxGeometry x="1015" y="685" width="50" height="30" as="geometry" />
        </mxCell>
        <mxCell id="EmgDvkxKHjXgh3PFIwty-81" value="((1,1)" style="text;html=1;align=center;verticalAlign=middle;resizable=0;points=[];autosize=1;strokeColor=none;fillColor=none;fontSize=12;fontFamily=Verdana;" parent="1" vertex="1">
          <mxGeometry x="740" y="655" width="60" height="30" as="geometry" />
        </mxCell>
        <mxCell id="C0HrtwvL85PrBI8nQNGT-6" value="Employee" style="shape=table;startSize=30;container=1;collapsible=0;childLayout=tableLayout;fixedRows=1;rowLines=0;fontStyle=0;strokeColor=default;fontSize=16;" vertex="1" parent="1">
          <mxGeometry x="1740" y="190" width="180" height="120" as="geometry" />
        </mxCell>
        <mxCell id="C0HrtwvL85PrBI8nQNGT-7" value="" style="shape=tableRow;horizontal=0;startSize=0;swimlaneHead=0;swimlaneBody=0;top=0;left=0;bottom=0;right=0;collapsible=0;dropTarget=0;fillColor=none;points=[[0,0.5],[1,0.5]];portConstraint=eastwest;strokeColor=inherit;fontSize=16;" vertex="1" parent="C0HrtwvL85PrBI8nQNGT-6">
          <mxGeometry y="30" width="180" height="30" as="geometry" />
        </mxCell>
        <mxCell id="C0HrtwvL85PrBI8nQNGT-8" value="1" style="shape=partialRectangle;html=1;whiteSpace=wrap;connectable=0;fillColor=none;top=0;left=0;bottom=0;right=0;overflow=hidden;pointerEvents=1;strokeColor=inherit;fontSize=16;" vertex="1" parent="C0HrtwvL85PrBI8nQNGT-7">
          <mxGeometry width="40" height="30" as="geometry">
            <mxRectangle width="40" height="30" as="alternateBounds" />
          </mxGeometry>
        </mxCell>
        <mxCell id="C0HrtwvL85PrBI8nQNGT-9" value="EID" style="shape=partialRectangle;html=1;whiteSpace=wrap;connectable=0;fillColor=none;top=0;left=0;bottom=0;right=0;align=left;spacingLeft=6;overflow=hidden;strokeColor=inherit;fontSize=16;" vertex="1" parent="C0HrtwvL85PrBI8nQNGT-7">
          <mxGeometry x="40" width="140" height="30" as="geometry">
            <mxRectangle width="140" height="30" as="alternateBounds" />
          </mxGeometry>
        </mxCell>
        <mxCell id="C0HrtwvL85PrBI8nQNGT-10" value="" style="shape=tableRow;horizontal=0;startSize=0;swimlaneHead=0;swimlaneBody=0;top=0;left=0;bottom=0;right=0;collapsible=0;dropTarget=0;fillColor=none;points=[[0,0.5],[1,0.5]];portConstraint=eastwest;strokeColor=inherit;fontSize=16;" vertex="1" parent="C0HrtwvL85PrBI8nQNGT-6">
          <mxGeometry y="60" width="180" height="30" as="geometry" />
        </mxCell>
        <mxCell id="C0HrtwvL85PrBI8nQNGT-11" value="2" style="shape=partialRectangle;html=1;whiteSpace=wrap;connectable=0;fillColor=none;top=0;left=0;bottom=0;right=0;overflow=hidden;strokeColor=inherit;fontSize=16;" vertex="1" parent="C0HrtwvL85PrBI8nQNGT-10">
          <mxGeometry width="40" height="30" as="geometry">
            <mxRectangle width="40" height="30" as="alternateBounds" />
          </mxGeometry>
        </mxCell>
        <mxCell id="C0HrtwvL85PrBI8nQNGT-12" value="EName" style="shape=partialRectangle;html=1;whiteSpace=wrap;connectable=0;fillColor=none;top=0;left=0;bottom=0;right=0;align=left;spacingLeft=6;overflow=hidden;strokeColor=inherit;fontSize=16;" vertex="1" parent="C0HrtwvL85PrBI8nQNGT-10">
          <mxGeometry x="40" width="140" height="30" as="geometry">
            <mxRectangle width="140" height="30" as="alternateBounds" />
          </mxGeometry>
        </mxCell>
        <mxCell id="C0HrtwvL85PrBI8nQNGT-13" value="" style="shape=tableRow;horizontal=0;startSize=0;swimlaneHead=0;swimlaneBody=0;top=0;left=0;bottom=0;right=0;collapsible=0;dropTarget=0;fillColor=none;points=[[0,0.5],[1,0.5]];portConstraint=eastwest;strokeColor=inherit;fontSize=16;" vertex="1" parent="C0HrtwvL85PrBI8nQNGT-6">
          <mxGeometry y="90" width="180" height="30" as="geometry" />
        </mxCell>
        <mxCell id="C0HrtwvL85PrBI8nQNGT-14" value="3" style="shape=partialRectangle;html=1;whiteSpace=wrap;connectable=0;fillColor=none;top=0;left=0;bottom=0;right=0;overflow=hidden;strokeColor=inherit;fontSize=16;" vertex="1" parent="C0HrtwvL85PrBI8nQNGT-13">
          <mxGeometry width="40" height="30" as="geometry">
            <mxRectangle width="40" height="30" as="alternateBounds" />
          </mxGeometry>
        </mxCell>
        <mxCell id="C0HrtwvL85PrBI8nQNGT-15" value="ESalary" style="shape=partialRectangle;html=1;whiteSpace=wrap;connectable=0;fillColor=none;top=0;left=0;bottom=0;right=0;align=left;spacingLeft=6;overflow=hidden;strokeColor=inherit;fontSize=16;" vertex="1" parent="C0HrtwvL85PrBI8nQNGT-13">
          <mxGeometry x="40" width="140" height="30" as="geometry">
            <mxRectangle width="140" height="30" as="alternateBounds" />
          </mxGeometry>
        </mxCell>
        <mxCell id="C0HrtwvL85PrBI8nQNGT-16" value="Team" style="shape=table;startSize=30;container=1;collapsible=0;childLayout=tableLayout;fixedRows=1;rowLines=0;fontStyle=0;strokeColor=default;fontSize=16;" vertex="1" parent="1">
          <mxGeometry x="1740" y="360" width="180" height="120" as="geometry" />
        </mxCell>
        <mxCell id="C0HrtwvL85PrBI8nQNGT-17" value="" style="shape=tableRow;horizontal=0;startSize=0;swimlaneHead=0;swimlaneBody=0;top=0;left=0;bottom=0;right=0;collapsible=0;dropTarget=0;fillColor=none;points=[[0,0.5],[1,0.5]];portConstraint=eastwest;strokeColor=inherit;fontSize=16;" vertex="1" parent="C0HrtwvL85PrBI8nQNGT-16">
          <mxGeometry y="30" width="180" height="30" as="geometry" />
        </mxCell>
        <mxCell id="C0HrtwvL85PrBI8nQNGT-18" value="1" style="shape=partialRectangle;html=1;whiteSpace=wrap;connectable=0;fillColor=none;top=0;left=0;bottom=0;right=0;overflow=hidden;pointerEvents=1;strokeColor=inherit;fontSize=16;" vertex="1" parent="C0HrtwvL85PrBI8nQNGT-17">
          <mxGeometry width="40" height="30" as="geometry">
            <mxRectangle width="40" height="30" as="alternateBounds" />
          </mxGeometry>
        </mxCell>
        <mxCell id="C0HrtwvL85PrBI8nQNGT-19" value="TID" style="shape=partialRectangle;html=1;whiteSpace=wrap;connectable=0;fillColor=none;top=0;left=0;bottom=0;right=0;align=left;spacingLeft=6;overflow=hidden;strokeColor=inherit;fontSize=16;" vertex="1" parent="C0HrtwvL85PrBI8nQNGT-17">
          <mxGeometry x="40" width="140" height="30" as="geometry">
            <mxRectangle width="140" height="30" as="alternateBounds" />
          </mxGeometry>
        </mxCell>
        <mxCell id="C0HrtwvL85PrBI8nQNGT-20" value="" style="shape=tableRow;horizontal=0;startSize=0;swimlaneHead=0;swimlaneBody=0;top=0;left=0;bottom=0;right=0;collapsible=0;dropTarget=0;fillColor=none;points=[[0,0.5],[1,0.5]];portConstraint=eastwest;strokeColor=inherit;fontSize=16;" vertex="1" parent="C0HrtwvL85PrBI8nQNGT-16">
          <mxGeometry y="60" width="180" height="30" as="geometry" />
        </mxCell>
        <mxCell id="C0HrtwvL85PrBI8nQNGT-21" value="2" style="shape=partialRectangle;html=1;whiteSpace=wrap;connectable=0;fillColor=none;top=0;left=0;bottom=0;right=0;overflow=hidden;strokeColor=inherit;fontSize=16;" vertex="1" parent="C0HrtwvL85PrBI8nQNGT-20">
          <mxGeometry width="40" height="30" as="geometry">
            <mxRectangle width="40" height="30" as="alternateBounds" />
          </mxGeometry>
        </mxCell>
        <mxCell id="C0HrtwvL85PrBI8nQNGT-22" value="TName" style="shape=partialRectangle;html=1;whiteSpace=wrap;connectable=0;fillColor=none;top=0;left=0;bottom=0;right=0;align=left;spacingLeft=6;overflow=hidden;strokeColor=inherit;fontSize=16;" vertex="1" parent="C0HrtwvL85PrBI8nQNGT-20">
          <mxGeometry x="40" width="140" height="30" as="geometry">
            <mxRectangle width="140" height="30" as="alternateBounds" />
          </mxGeometry>
        </mxCell>
        <mxCell id="C0HrtwvL85PrBI8nQNGT-23" value="" style="shape=tableRow;horizontal=0;startSize=0;swimlaneHead=0;swimlaneBody=0;top=0;left=0;bottom=0;right=0;collapsible=0;dropTarget=0;fillColor=none;points=[[0,0.5],[1,0.5]];portConstraint=eastwest;strokeColor=inherit;fontSize=16;" vertex="1" parent="C0HrtwvL85PrBI8nQNGT-16">
          <mxGeometry y="90" width="180" height="30" as="geometry" />
        </mxCell>
        <mxCell id="C0HrtwvL85PrBI8nQNGT-24" value="3" style="shape=partialRectangle;html=1;whiteSpace=wrap;connectable=0;fillColor=none;top=0;left=0;bottom=0;right=0;overflow=hidden;strokeColor=inherit;fontSize=16;" vertex="1" parent="C0HrtwvL85PrBI8nQNGT-23">
          <mxGeometry width="40" height="30" as="geometry">
            <mxRectangle width="40" height="30" as="alternateBounds" />
          </mxGeometry>
        </mxCell>
        <mxCell id="C0HrtwvL85PrBI8nQNGT-25" value="TStartDate" style="shape=partialRectangle;html=1;whiteSpace=wrap;connectable=0;fillColor=none;top=0;left=0;bottom=0;right=0;align=left;spacingLeft=6;overflow=hidden;strokeColor=inherit;fontSize=16;" vertex="1" parent="C0HrtwvL85PrBI8nQNGT-23">
          <mxGeometry x="40" width="140" height="30" as="geometry">
            <mxRectangle width="140" height="30" as="alternateBounds" />
          </mxGeometry>
        </mxCell>
        <mxCell id="C0HrtwvL85PrBI8nQNGT-26" value="Project" style="shape=table;startSize=30;container=1;collapsible=0;childLayout=tableLayout;fixedRows=1;rowLines=0;fontStyle=0;strokeColor=default;fontSize=16;" vertex="1" parent="1">
          <mxGeometry x="1740" y="520" width="180" height="140" as="geometry" />
        </mxCell>
        <mxCell id="C0HrtwvL85PrBI8nQNGT-27" value="" style="shape=tableRow;horizontal=0;startSize=0;swimlaneHead=0;swimlaneBody=0;top=0;left=0;bottom=0;right=0;collapsible=0;dropTarget=0;fillColor=none;points=[[0,0.5],[1,0.5]];portConstraint=eastwest;strokeColor=inherit;fontSize=16;" vertex="1" parent="C0HrtwvL85PrBI8nQNGT-26">
          <mxGeometry y="30" width="180" height="30" as="geometry" />
        </mxCell>
        <mxCell id="C0HrtwvL85PrBI8nQNGT-28" value="1" style="shape=partialRectangle;html=1;whiteSpace=wrap;connectable=0;fillColor=none;top=0;left=0;bottom=0;right=0;overflow=hidden;pointerEvents=1;strokeColor=inherit;fontSize=16;" vertex="1" parent="C0HrtwvL85PrBI8nQNGT-27">
          <mxGeometry width="40" height="30" as="geometry">
            <mxRectangle width="40" height="30" as="alternateBounds" />
          </mxGeometry>
        </mxCell>
        <mxCell id="C0HrtwvL85PrBI8nQNGT-29" value="ProjectId" style="shape=partialRectangle;html=1;whiteSpace=wrap;connectable=0;fillColor=none;top=0;left=0;bottom=0;right=0;align=left;spacingLeft=6;overflow=hidden;strokeColor=inherit;fontSize=16;" vertex="1" parent="C0HrtwvL85PrBI8nQNGT-27">
          <mxGeometry x="40" width="140" height="30" as="geometry">
            <mxRectangle width="140" height="30" as="alternateBounds" />
          </mxGeometry>
        </mxCell>
        <mxCell id="C0HrtwvL85PrBI8nQNGT-30" value="" style="shape=tableRow;horizontal=0;startSize=0;swimlaneHead=0;swimlaneBody=0;top=0;left=0;bottom=0;right=0;collapsible=0;dropTarget=0;fillColor=none;points=[[0,0.5],[1,0.5]];portConstraint=eastwest;strokeColor=inherit;fontSize=16;" vertex="1" parent="C0HrtwvL85PrBI8nQNGT-26">
          <mxGeometry y="60" width="180" height="20" as="geometry" />
        </mxCell>
        <mxCell id="C0HrtwvL85PrBI8nQNGT-31" value="2" style="shape=partialRectangle;html=1;whiteSpace=wrap;connectable=0;fillColor=none;top=0;left=0;bottom=0;right=0;overflow=hidden;strokeColor=inherit;fontSize=16;" vertex="1" parent="C0HrtwvL85PrBI8nQNGT-30">
          <mxGeometry width="40" height="20" as="geometry">
            <mxRectangle width="40" height="20" as="alternateBounds" />
          </mxGeometry>
        </mxCell>
        <mxCell id="C0HrtwvL85PrBI8nQNGT-32" value="ProjectName" style="shape=partialRectangle;html=1;whiteSpace=wrap;connectable=0;fillColor=none;top=0;left=0;bottom=0;right=0;align=left;spacingLeft=6;overflow=hidden;strokeColor=inherit;fontSize=16;" vertex="1" parent="C0HrtwvL85PrBI8nQNGT-30">
          <mxGeometry x="40" width="140" height="20" as="geometry">
            <mxRectangle width="140" height="20" as="alternateBounds" />
          </mxGeometry>
        </mxCell>
        <mxCell id="C0HrtwvL85PrBI8nQNGT-33" value="" style="shape=tableRow;horizontal=0;startSize=0;swimlaneHead=0;swimlaneBody=0;top=0;left=0;bottom=0;right=0;collapsible=0;dropTarget=0;fillColor=none;points=[[0,0.5],[1,0.5]];portConstraint=eastwest;strokeColor=inherit;fontSize=16;" vertex="1" parent="C0HrtwvL85PrBI8nQNGT-26">
          <mxGeometry y="80" width="180" height="30" as="geometry" />
        </mxCell>
        <mxCell id="C0HrtwvL85PrBI8nQNGT-34" value="3" style="shape=partialRectangle;html=1;whiteSpace=wrap;connectable=0;fillColor=none;top=0;left=0;bottom=0;right=0;overflow=hidden;strokeColor=inherit;fontSize=16;" vertex="1" parent="C0HrtwvL85PrBI8nQNGT-33">
          <mxGeometry width="40" height="30" as="geometry">
            <mxRectangle width="40" height="30" as="alternateBounds" />
          </mxGeometry>
        </mxCell>
        <mxCell id="C0HrtwvL85PrBI8nQNGT-35" value="StartDate" style="shape=partialRectangle;html=1;whiteSpace=wrap;connectable=0;fillColor=none;top=0;left=0;bottom=0;right=0;align=left;spacingLeft=6;overflow=hidden;strokeColor=inherit;fontSize=16;" vertex="1" parent="C0HrtwvL85PrBI8nQNGT-33">
          <mxGeometry x="40" width="140" height="30" as="geometry">
            <mxRectangle width="140" height="30" as="alternateBounds" />
          </mxGeometry>
        </mxCell>
        <mxCell id="C0HrtwvL85PrBI8nQNGT-37" value="" style="shape=tableRow;horizontal=0;startSize=0;swimlaneHead=0;swimlaneBody=0;top=0;left=0;bottom=0;right=0;collapsible=0;dropTarget=0;fillColor=none;points=[[0,0.5],[1,0.5]];portConstraint=eastwest;strokeColor=inherit;fontSize=16;" vertex="1" parent="C0HrtwvL85PrBI8nQNGT-26">
          <mxGeometry y="110" width="180" height="30" as="geometry" />
        </mxCell>
        <mxCell id="C0HrtwvL85PrBI8nQNGT-38" value="4" style="shape=partialRectangle;html=1;whiteSpace=wrap;connectable=0;fillColor=none;top=0;left=0;bottom=0;right=0;overflow=hidden;strokeColor=inherit;fontSize=16;" vertex="1" parent="C0HrtwvL85PrBI8nQNGT-37">
          <mxGeometry width="40" height="30" as="geometry">
            <mxRectangle width="40" height="30" as="alternateBounds" />
          </mxGeometry>
        </mxCell>
        <mxCell id="C0HrtwvL85PrBI8nQNGT-39" value="EndDate" style="shape=partialRectangle;html=1;whiteSpace=wrap;connectable=0;fillColor=none;top=0;left=0;bottom=0;right=0;align=left;spacingLeft=6;overflow=hidden;strokeColor=inherit;fontSize=16;" vertex="1" parent="C0HrtwvL85PrBI8nQNGT-37">
          <mxGeometry x="40" width="140" height="30" as="geometry">
            <mxRectangle width="140" height="30" as="alternateBounds" />
          </mxGeometry>
        </mxCell>
      </root>
    </mxGraphModel>
  </diagram>
</mxfile>
